#!OML:ASF X:\für Bonn\!DataBase\2005_08_10_Bjorn_Final\c3d\bjorn.ASF
:FULLY-SPECIFIED
:DEGREES
136
root 3.07313 8.68246 -0.409534 302.368 -260.324 -408.712
lowerback 49.0916 -6.90271 4.09534
upperback 22.2154 -0.984487 5.32027
thorax 4.43003 1.34604 4.29801
lowerneck -4.51306 -10.5942 -0.136117
upperneck 6.38942 -14.3254 3.71199
head 3.14294 -6.96739 0.604545
rclavicle -2.54444e-014 -1.74931e-014
rhumerus 5.60041 -12.3094 -72.7197
rradius 29.6243
rwrist 12.8478
rhand -48.9956 41.933
rfingers 7.12502
rthumb -21.6247 13.1205
lclavicle -2.54444e-014 -1.74931e-014
lhumerus 36.0794 -28.1708 47.3509
lradius 44.8995
lwrist -14.1251
lhand -25.4194 -15.2012
lfingers 7.12502
lthumb 1.10646 14.7756
rfemur -36.0051 -77.649 -59.7928
rtibia 149.166
rfoot -53.8506 66.4453
rtoes -21.404
lfemur -83.0864 47.1108 -28.3311
ltibia 148.54
lfoot -32.2382 -22.215
ltoes -28.5259
137
root 3.08705 8.60134 -0.416419 301.857 -260.356 -408.926
lowerback 49.2208 -6.94737 4.0581
upperback 22.2492 -1.02104 5.33604
thorax 4.45491 1.33051 4.34928
lowerneck -4.53336 -10.5917 -0.257254
upperneck 6.51783 -14.3186 3.75291
head 3.20481 -6.9608 0.630489
rclavicle 5.725e-014 -5.56597e-015
rhumerus 5.34662 -12.2392 -72.74
rradius 29.93
rwrist 13.0638
rhand -49.3538 42.8904
rfingers 7.12502
rthumb -21.9688 14.1179
lclavicle 5.725e-014 -5.56597e-015
lhumerus 35.8086 -28.2363 47.8251
lradius 44.2166
lwrist -14.4592
lhand -25.534 -15.0671
lfingers 7.12502
lthumb 0.995794 14.9103
rfemur -28.4722 -78.4163 -68.4709
rtibia 149.709
rfoot -56.2042 67.0928
rtoes -21.6065
lfemur -83.1361 49.5419 -28.0548
ltibia 149.153
lfoot -32.8628 -22.828
ltoes -28.8757
138
root 3.10066 8.52283 -0.422292 301.362 -260.389 -409.125
lowerback 49.377 -6.98049 3.99258
upperback 22.2555 -1.05693 5.36655
thorax 4.44476 1.30861 4.4283
lowerneck -4.52442 -10.5793 -0.356885
upperneck 6.66811 -14.2947 3.73246
head 3.26118 -6.94678 0.636273
rclavicle -4.45278e-014 -1.82882e-014
rhumerus 5.03505 -12.1247 -72.739
rradius 30.2617
rwrist 13.2615
rhand -49.638 43.6773
rfingers 7.12502
rthumb -22.2416 14.9371
lclavicle -4.45278e-014 -1.82882e-014
lhumerus 35.4265 -28.3079 48.3396
lradius 43.5727
lwrist -14.7036
lhand -25.607 -15.0593
lfingers 7.12502
lthumb 0.925336 14.9185
rfemur -20.1753 -78.9085 -77.8823
rtibia 150.228
rfoot -58.7337 67.6119
rtoes -21.802
lfemur -83.173 51.9699 -27.7248
ltibia 149.755
lfoot -33.4889 -23.4353
ltoes -29.074
139
root 3.11477 8.4478 -0.428288 300.871 -260.438 -409.319
lowerback 49.4913 -7.02059 3.94981
upperback 22.2995 -1.09183 5.38559
thorax 4.48351 1.29309 4.4853
lowerneck -4.54747 -10.5694 -0.46615
upperneck 6.79914 -14.2768 3.74487
head 3.32091 -6.93535 0.652111
rclavicle -6.36111e-015 0
rhumerus 4.8057 -12.088 -72.7837
rradius 30.5401
rwrist 13.4864
rhand -49.8555 44.5216
rfingers 7.12502
rthumb -22.4504 15.8065
lclavicle -6.36111e-015 0
lhumerus 35.09 -28.3622 48.827
lradius 42.9617
lwrist -14.873
lhand -25.6233 -15.0899
lfingers 7.12502
lthumb 0.909617 14.8879
rfemur -12.1397 -79.0851 -87.0009
rtibia 150.732
rfoot -61.2824 67.9683
rtoes -22.0821
lfemur -83.0887 54.4032 -27.2759
ltibia 150.325
lfoot -34.1326 -24.0525
ltoes -29.2958
140
root 3.12759 8.37428 -0.433766 300.516 -260.517 -409.372
lowerback 49.5807 -7.06019 3.92949
upperback 22.3827 -1.11044 5.42874
thorax 4.56978 1.28837 4.55448
lowerneck -4.64506 -10.5658 -0.56375
upperneck 6.94346 -14.2679 3.73191
head 3.39632 -6.92808 0.653009
rclavicle -6.04305e-014 -1.98785e-014
rhumerus 4.63537 -12.1156 -72.8138
rradius 30.7928
rwrist 13.7533
rhand -50.0836 45.4258
rfingers 7.12502
rthumb -22.6693 16.7372
lclavicle -6.04305e-014 -1.98785e-014
lhumerus 34.7769 -28.3873 49.3299
lradius 42.3867
lwrist -15.0283
lhand -25.5596 -15.2266
lfingers 7.12502
lthumb 0.971073 14.7509
rfemur -4.45085 -78.9944 -95.7051
rtibia 151.213
rfoot -63.8471 68.296
rtoes -22.3758
lfemur -82.9255 56.8294 -26.6616
ltibia 150.89
lfoot -34.8505 -24.6391
ltoes -29.6314
141
root 3.14043 8.30604 -0.439333 300.192 -260.62 -409.405
lowerback 49.6442 -7.12152 3.94787
upperback 22.487 -1.14015 5.44331
thorax 4.68501 1.28608 4.57937
lowerneck -4.78647 -10.5567 -0.639433
upperneck 7.08246 -14.255 3.72504
head 3.47698 -6.918 0.650229
rclavicle -9.54166e-015 -6.59965e-014
rhumerus 4.50115 -12.08 -72.8573
rradius 31.044
rwrist 13.8717
rhand -50.3004 46.4483
rfingers 7.12502
rthumb -22.8774 17.7853
lclavicle -9.54166e-015 -6.59965e-014
lhumerus 34.4733 -28.3692 49.7894
lradius 41.8555
lwrist -15.1197
lhand -25.3668 -15.44
lfingers 7.12502
lthumb 1.15735 14.5366
rfemur 2.45664 -78.6852 -103.549
rtibia 151.659
rfoot -66.2225 68.6413
rtoes -22.4435
lfemur -82.6835 59.2588 -25.937
ltibia 151.419
lfoot -35.5504 -25.2579
ltoes -29.7499
142
root 3.15265 8.24077 -0.444366 300.099 -260.741 -409.204
lowerback 49.7318 -7.21171 4.0169
upperback 22.5624 -1.18217 5.44501
thorax 4.76612 1.28281 4.57053
lowerneck -4.88451 -10.5389 -0.687138
upperneck 7.20724 -14.2309 3.71665
head 3.54193 -6.90261 0.646409
rclavicle 3.81667e-014 1.31198e-013
rhumerus 4.36216 -12.0967 -72.9486
rradius 31.2407
rwrist 14.0559
rhand -50.5131 47.6267
rfingers 7.12502
rthumb -23.0815 18.9891
lclavicle 3.81667e-014 1.31198e-013
lhumerus 34.126 -28.4172 50.1806
lradius 41.4092
lwrist -15.1713
lhand -25.2263 -15.5925
lfingers 7.12502
lthumb 1.29299 14.3834
rfemur 8.25148 -78.2338 -110.202
rtibia 152.087
rfoot -68.6077 68.793
rtoes -22.7578
lfemur -82.3613 61.6587 -25.068
ltibia 151.93
lfoot -36.2059 -25.8882
ltoes -29.8515
143
root 3.16456 8.17752 -0.449059 300.07 -260.875 -408.957
lowerback 49.822 -7.29729 4.11671
upperback 22.5938 -1.21409 5.44989
thorax 4.7965 1.28354 4.54556
lowerneck -4.88535 -10.5308 -0.729593
upperneck 7.31163 -14.2166 3.70053
head 3.58055 -6.89358 0.645386
rclavicle -4.45278e-014 -1.51076e-014
rhumerus 4.13539 -12.109 -73.0236
rradius 31.4468
rwrist 14.2399
rhand -50.7179 48.6684
rfingers 7.12502
rthumb -23.278 20.0556
lclavicle -4.45278e-014 -1.51076e-014
lhumerus 33.7133 -28.5265 50.5888
lradius 41.0119
lwrist -15.2564
lhand -25.1522 -15.7402
lfingers 7.12502
lthumb 1.36454 14.2352
rfemur 13.299 -77.6626 -116.067
rtibia 152.488
rfoot -70.7012 69.1155
rtoes -22.5889
lfemur -81.8806 64.0503 -24.0229
ltibia 152.422
lfoot -37.0214 -26.3777
ltoes -30.1971
144
root 3.17665 8.11823 -0.45399 300.057 -261.05 -408.71
lowerback 49.9266 -7.37985 4.22543
upperback 22.603 -1.24189 5.46366
thorax 4.79976 1.28349 4.52401
lowerneck -4.85884 -10.502 -0.790491
upperneck 7.4208 -14.1705 3.66101
head 3.61433 -6.87028 0.64314
rclavicle 7.95139e-014 -2.06736e-014
rhumerus 3.90398 -12.0989 -73.0854
rradius 31.6332
rwrist 14.4627
rhand -50.8587 49.6007
rfingers 7.12502
rthumb -23.413 21.005
lclavicle 7.95139e-014 -2.06736e-014
lhumerus 33.2417 -28.6396 51.0185
lradius 40.6288
lwrist -15.3391
lhand -25.0652 -15.8981
lfingers 7.12502
lthumb 1.44861 14.0767
rfemur 17.2846 -77.0678 -120.77
rtibia 152.869
rfoot -72.7778 69.261
rtoes -22.6905
lfemur -81.2568 66.4525 -22.7534
ltibia 152.902
lfoot -37.8457 -26.9204
ltoes -30.372
145
root 3.18733 8.06254 -0.458308 300.052 -261.189 -408.474
lowerback 50.0558 -7.47484 4.35322
upperback 22.5681 -1.28126 5.43875
thorax 4.75073 1.28109 4.45408
lowerneck -4.84668 -10.4795 -0.758198
upperneck 7.55791 -14.1372 3.57951
head 3.64928 -6.85142 0.611047
rclavicle 9.54166e-015 -6.52014e-014
rhumerus 3.64433 -12.1346 -73.1895
rradius 31.7875
rwrist 14.6928
rhand -50.9514 50.367
rfingers 7.12502
rthumb -23.502 21.7827
lclavicle 9.54166e-015 -6.52014e-014
lhumerus 32.7231 -28.7776 51.4296
lradius 40.2898
lwrist -15.5199
lhand -24.9247 -15.9837
lfingers 7.12502
lthumb 1.58428 13.9902
rfemur 20.5035 -76.4606 -124.753
rtibia 153.228
rfoot -74.7181 69.5036
rtoes -22.6537
lfemur -80.5034 68.8293 -21.4026
ltibia 153.338
lfoot -38.5833 -27.5302
ltoes -30.3956
